<svg clip-rule="evenodd" fill-rule="evenodd" height="512" image-rendering="optimizeQuality" shape-rendering="geometricPrecision" text-rendering="geometricPrecision" viewBox="0 0 512 512" width="512" xmlns="http://www.w3.org/2000/svg"><g id="Layer_x0020_1"><g id="_297073640"><path d="m167 137c-2 0-5-2-5-4l-23-70h-64c-4 0-6-3-6-6 0-4 2-7 6-7h69c2 0 5 2 6 5l23 74c1 3 0 7-4 8 0 0-1 0-2 0z" fill="#3b4a51"/><path d="m477 426h-296c-28 0-51-23-51-51s23-50 51-50h296c3 0 6 2 6 6 0 3-3 6-6 6h-296c-21 0-38 17-38 38s17 38 38 38h296c3 0 6 3 6 6 0 4-3 7-6 7z" fill="#3b4a51"/><path d="m477 337h-286c-3 0-6-2-6-5l-24-200c0-2 1-4 2-5 0-1 1-1 1-1 1-1 2-1 3-1h334c1 0 3 1 4 2s2 3 2 5l-24 200c0 3-3 5-6 5z" fill="#ffc636" stroke="#ffc636" stroke-width=".9"/><path d="m179 282-1-12h312l-1 12-6 50v1c-1 1-2 2-3 3s-2 1-3 1h-286c-3 0-6-2-6-5l-1-7z" fill="#e9b534" stroke="#ffc636" stroke-width=".9"/><path d="m477 483c-19 0-35-15-35-35 0-19 16-35 35-35s35 16 35 35c0 20-16 35-35 35z" fill="#596c76"/><path d="m220 483c-20 0-35-15-35-35 0-19 15-35 35-35 19 0 35 16 35 35 0 20-16 35-35 35z" fill="#596c76"/><path d="m75 84h-47c-15 0-28-12-28-27 0-16 13-28 28-28h47c3 0 6 2 6 6v43c0 4-3 6-6 6z" fill="#3b4a51"/><g fill-rule="nonzero"><path d="m334 50c28 0 53 11 72 30 18 18 30 43 30 71s-12 54-30 72c-19 19-44 30-72 30s-53-11-72-30c-18-18-29-44-29-72s11-53 29-71c19-19 44-30 72-30z" fill="#ff4974"/><path d="m372 166c2-3 2-7-1-9s-6-1-8 1l-27 34-2 3-2-3-26-34c-3-2-6-3-9-1-2 2-3 6-1 9l26 33 3 4 4 5s1 1 1 1c3 2 7 2 9-1l-5-4 5 4 4-5 3-4z" fill="#fefefe"/><path d="m328 204c0 4 3 6 6 6s6-2 6-6v-106c0-3-3-6-6-6s-6 3-6 6z" fill="#fefefe"/></g></g></g></svg>