<svg id="Capa_1" enable-background="new 0 0 511.282 511.282" height="512" viewBox="0 0 511.282 511.282" width="512" xmlns="http://www.w3.org/2000/svg"><g><path d="m511.282 69.219v320.932c0 6.831-5.526 12.363-12.349 12.363h-479.895l-19.038-333.295 30.2-20.301 435.967-9.763z" fill="#f2fbff"/><path d="m38.076 402.514h-25.727c-6.823 0-12.349-5.532-12.349-12.363v-320.932l14.227-20.301 11.499 20.301v320.932c.001 6.831 5.527 12.363 12.35 12.363z" fill="#d8ecfe"/><path d="m511.282 21.455v47.764h-492.244l-5.832-26.448 10.174-33.679h475.553c6.823 0 12.349 5.543 12.349 12.363z" fill="#b3dafe"/><path d="m38.076 9.092c-6.823 0-12.349 5.543-12.349 12.363v47.764h-25.727v-47.764c0-6.82 5.526-12.363 12.349-12.363z" fill="#8ac9fe"/><path d="m196.833 241.837h-28.282l-35.637-11.892-35.637 11.892h-28.283c-1.223 0-2.394-.534-3.169-1.482-12.203-14.936 1.521-35.096.729-55.878-.783-20.532 17.597-84.945 65.037-85.654 48.437-.724 87.929 38.37 87.929 86.698 0 20.797-7.314 39.896-19.517 54.832-.775.95-1.947 1.484-3.17 1.484z" fill="#b6c4cf"/><path d="m72.035 185.526c0 20.791 7.317 39.892 19.521 54.831.772.948 1.945 1.484 3.17 1.484h-25.727c-1.225 0-2.398-.536-3.17-1.484-12.205-14.939-19.521-34.04-19.521-54.831 0-47.506 37.839-85.998 85.279-86.698 4.826-.072 9.56.247 14.17.937-41.883 6.193-73.722 42.18-73.722 85.761z" fill="#9facba"/><path d="m168.551 241.842v-23.48c0-9.849-3.993-18.772-10.435-25.221-6.452-6.46-15.354-10.457-25.202-10.457-19.686 0-19.338 27.705-19.404 37.088l-16.233 22.071h71.274z" fill="#fe99a0"/><path d="m145.778 185.073c-13.326 5.172-22.773 18.133-22.773 33.288v23.48h-25.727v-23.48c0-19.699 15.951-35.679 35.637-35.679 4.538 0 8.87.845 12.863 2.391z" fill="#fd8087"/><ellipse cx="132.914" cy="160.492" fill="#f2fbff" rx="23.957" ry="23.985"/><path d="m456.742 241.842h-169.231l-6.652 90.886 7.043 149.393h32.078c2.273 0 4.116-1.845 4.116-4.121v-19.777c0-2.276 1.843-4.121 4.116-4.121h76.673c2.273 0 4.116 1.845 4.116 4.121v19.777c0 2.276 1.843 4.121 4.116 4.121h43.624c4.547 0 8.233-3.69 8.233-8.242v-223.795c.001-4.552-3.685-8.242-8.232-8.242z" fill="#fe99a0"/><path d="m293.85 250.083v223.797c0 4.554 3.684 8.242 8.233 8.242h-25.727c-4.548 0-8.233-3.688-8.233-8.242v-223.797c0-4.554 3.684-8.242 8.233-8.242h25.727c-4.549 0-8.233 3.688-8.233 8.242z" fill="#fd8087"/><path d="m195.359 451.357c-14.38 39.944-58.381 60.654-98.278 46.257s-31.309-85.061-29.399-97.843c.789-5.281 12.423-42.696 36.081-48.888 14.491-3.792 30.238-3.389 45.393 2.08 39.897 14.398 60.583 58.45 46.203 98.394z" fill="#b3dafe"/><path d="m135.981 501.101c-12.627 2.153-25.984 1.175-38.899-3.482-39.897-14.403-60.581-58.458-46.205-98.402 12.802-35.576 49.117-55.893 85.094-49.732-26.375 4.512-49.642 22.718-59.367 49.732-14.376 39.944 6.308 83.999 46.205 98.402 4.363 1.575 8.768 2.719 13.172 3.482z" fill="#8ac9fe"/><path d="m194.029 318.713h-105.823l-8.674-17.877 7.891-24.454h106.605c2.275 0 4.119 1.844 4.119 4.119v34.094c.001 2.274-1.843 4.118-4.118 4.118z" fill="#c9f6b0"/><path d="m97.525 318.71h-25.727c-2.274 0-4.116-1.844-4.116-4.121v-34.081c0-2.277 1.842-4.121 4.116-4.121h25.727c-2.274 0-4.116 1.844-4.116 4.121v34.081c-.001 2.277 1.841 4.121 4.116 4.121z" fill="#9be69d"/><path d="m314.432 312.442v-31.106c0-2.209 1.791-4 4-4h96.234c2.209 0 4 1.791 4 4v31.106c0 2.209-1.791 4-4 4h-96.234c-2.209 0-4-1.791-4-4z" fill="#f2fbff"/><path d="m343.431 316.441h-25c-2.21 0-4-1.79-4-4v-31.1c0-2.21 1.79-4 4-4h25c-2.21 0-4 1.79-4 4v31.1c0 2.21 1.79 4 4 4z" fill="#d8ecfe"/><path d="m135.098 419.052s66.429-46.516 68.315-43.497c17.008 27.218 19.15 60.711 4.931 88.535-2.268 4.438-4.917 8.663-7.918 12.636-1.904 2.521-64.445-57.674-65.328-57.674z" fill="#c9f6b0"/><path d="m150.203 421.883 53.707 49.876c-2.82 4.348-6.041 8.428-9.611 12.209-.772.824-2.058.845-2.881.083l-66.941-62.167c-.936-.876-.854-2.39.165-3.153l69.719-52.338c.885-.67 2.161-.515 2.85.35 2.82 3.565 5.361 7.284 7.605 11.117l-54.448 40.871c-1.019.761-1.102 2.276-.165 3.152z" fill="#9be69d"/><path d="m434.335 198.304h-141.53v-33.259l48.763-35.534c3.348-2.439 4.084-7.131 1.645-10.479-2.44-3.348-7.132-4.082-10.479-1.645l-39.929 29.097v-47.668c0-4.143-3.357-7.5-7.5-7.5s-7.5 3.357-7.5 7.5v104.928c0 5.271 4.287 9.561 9.558 9.561h146.973c4.143 0 7.5-3.357 7.5-7.5s-3.358-7.501-7.501-7.501z" fill="#d8ecfe"/><path d="m379.189 164.413c-2.05 0-4.092-.836-5.572-2.479l-30.164-33.463c-2.773-3.076-2.528-7.819.549-10.592 3.075-2.773 7.818-2.528 10.592.549l30.164 33.463c2.773 3.076 2.528 7.819-.549 10.592-1.434 1.293-3.23 1.93-5.02 1.93z" fill="#d8ecfe"/><path d="m390.937 164.413c-2.225 0-4.427-.985-5.906-2.871-2.557-3.259-1.986-7.974 1.272-10.53l37.541-29.447c3.26-2.557 7.975-1.985 10.53 1.272 2.557 3.259 1.986 7.974-1.272 10.53l-37.541 29.447c-1.373 1.077-3.005 1.599-4.624 1.599z" fill="#d8ecfe"/><ellipse cx="344.323" cy="118.013" fill="#fe99a0" rx="14.186" ry="14.203"/><ellipse cx="383.651" cy="162.304" fill="#fe99a0" rx="14.186" ry="14.203"/><ellipse cx="435.25" cy="121.543" fill="#fe99a0" rx="14.186" ry="14.203"/><g fill="#d8ecfe"><path d="m329.108 360.614h-14.676c-4.143 0-7.5-3.357-7.5-7.5s3.357-7.5 7.5-7.5h14.676c4.143 0 7.5 3.357 7.5 7.5s-3.358 7.5-7.5 7.5z"/><path d="m418.666 360.614h-61.379c-4.143 0-7.5-3.357-7.5-7.5s3.357-7.5 7.5-7.5h61.379c4.143 0 7.5 3.357 7.5 7.5s-3.357 7.5-7.5 7.5z"/><path d="m329.108 393.583h-14.676c-4.143 0-7.5-3.357-7.5-7.5s3.357-7.5 7.5-7.5h14.676c4.143 0 7.5 3.357 7.5 7.5s-3.358 7.5-7.5 7.5z"/><path d="m418.666 393.583h-61.379c-4.143 0-7.5-3.357-7.5-7.5s3.357-7.5 7.5-7.5h61.379c4.143 0 7.5 3.357 7.5 7.5s-3.357 7.5-7.5 7.5z"/><path d="m329.108 426.552h-14.676c-4.143 0-7.5-3.357-7.5-7.5s3.357-7.5 7.5-7.5h14.676c4.143 0 7.5 3.357 7.5 7.5s-3.358 7.5-7.5 7.5z"/><path d="m418.666 426.552h-61.379c-4.143 0-7.5-3.357-7.5-7.5s3.357-7.5 7.5-7.5h61.379c4.143 0 7.5 3.357 7.5 7.5s-3.357 7.5-7.5 7.5z"/></g><path d="m314.751 46.657h-270.511c-4.142 0-7.5-3.357-7.5-7.5s3.358-7.5 7.5-7.5h270.511c4.143 0 7.5 3.357 7.5 7.5s-3.357 7.5-7.5 7.5z" fill="#c5d3dd"/><path d="m467.041 46.657h-3.489c-4.143 0-7.5-3.357-7.5-7.5s3.357-7.5 7.5-7.5h3.489c4.143 0 7.5 3.357 7.5 7.5s-3.357 7.5-7.5 7.5z" fill="#d8ecfe"/><path d="m437.826 46.657h-3.49c-4.143 0-7.5-3.357-7.5-7.5s3.357-7.5 7.5-7.5h3.49c4.143 0 7.5 3.357 7.5 7.5s-3.358 7.5-7.5 7.5z" fill="#f2fdec"/><path d="m408.609 46.657h-3.49c-4.143 0-7.5-3.357-7.5-7.5s3.357-7.5 7.5-7.5h3.49c4.143 0 7.5 3.357 7.5 7.5s-3.358 7.5-7.5 7.5z" fill="#d8ecfe"/></g></svg>