<svg clip-rule="evenodd" fill-rule="evenodd" height="135" image-rendering="optimizeQuality" shape-rendering="geometricPrecision" text-rendering="geometricPrecision" viewBox="0 0 12287 13471" width="123" xmlns="http://www.w3.org/2000/svg"><g id="Layer_x0020_1"><g id="_535154568"><path d="m6581 163 4802 2773c377 218 593 591 593 1027v5545c0 435-216 809-593 1027l-4802 2772c-377 218-809 218-1186 0l-4802-2772c-377-218-593-592-593-1027v-5545c0-436 216-809 593-1027l4802-2773c377-217 809-217 1186 0z" fill="#ff576b"/><g><path d="m9256 11763v-7103h-9256v4848c0 435 216 809 593 1027l4802 2772c377 218 809 218 1186 0z" fill="#ffc42e"/><g fill="#edb423"><path d="m7964 12508-199 115c3-72 63-130 136-130 23 0 44 6 63 15zm-1273 735-110 64c-22 13-44 24-65 35-55-18-94-69-94-129 0-75 61-136 136-136 76 0 137 61 137 136 0 11-2 21-4 30zm-2286-507-219-127c9-66 66-116 134-116 75 0 136 61 136 136 0 43-20 82-51 107zm-1293-747-220-127c23-19 53-31 85-31 76 0 137 61 137 137 0 7-1 14-2 21zm-1975-1140-35-20c-31-25-51-64-51-107 0-75 61-136 136-136s136 61 136 136-61 136-136 136c-18 0-35-3-50-9zm4079 1644c75 0 136 61 136 136s-61 136-136 136c-76 0-137-61-137-136s61-136 137-136zm895 0c75 0 136 61 136 136s-61 136-136 136-136-61-136-136 61-136 136-136zm895 0c75 0 136 61 136 136s-61 136-136 136-136-61-136-136 61-136 136-136zm-1343 584c75 0 136 61 136 136s-61 136-136 136-136-61-136-136 61-136 136-136zm-3133-1830c75 0 136 61 136 137 0 75-61 136-136 136s-136-61-136-136c0-76 61-137 136-137zm895 0c75 0 136 61 136 137 0 75-61 136-136 136s-136-61-136-136c0-76 61-137 136-137zm895 0c75 0 136 61 136 137 0 75-61 136-136 136s-136-61-136-136c0-76 61-137 136-137zm896 0c75 0 136 61 136 137 0 75-61 136-136 136-76 0-137-61-137-136 0-76 61-137 137-137zm895 0c75 0 136 61 136 137 0 75-61 136-136 136s-136-61-136-136c0-76 61-137 136-137zm895 0c75 0 136 61 136 137 0 75-61 136-136 136s-136-61-136-136c0-76 61-137 136-137zm895 0c76 0 136 61 136 137 0 75-60 136-136 136-75 0-136-61-136-136 0-76 61-137 136-137zm896 0c75 0 136 61 136 137 0 75-61 136-136 136-76 0-137-61-137-136 0-76 61-137 137-137zm-4924 584c75 0 136 61 136 137 0 75-61 136-136 136-76 0-137-61-137-136 0-76 61-137 137-137zm895 0c75 0 136 61 136 137 0 75-61 136-136 136s-136-61-136-136c0-76 61-137 136-137zm895 0c75 0 136 61 136 137 0 75-61 136-136 136s-136-61-136-136c0-76 61-137 136-137zm895 0c76 0 137 61 137 137 0 75-61 136-137 136-75 0-136-61-136-136 0-76 61-137 136-137zm896 0c75 0 136 61 136 137 0 75-61 136-136 136-76 0-137-61-137-136 0-76 61-137 137-137zm895 0c75 0 136 61 136 137 0 75-61 136-136 136s-136-61-136-136c0-76 61-137 136-137zm-7610-1829c75 0 136 61 136 136s-61 136-136 136-136-61-136-136 61-136 136-136zm895 0c76 0 137 61 137 136s-61 136-137 136c-75 0-136-61-136-136s61-136 136-136zm896 0c75 0 136 61 136 136s-61 136-136 136-136-61-136-136 61-136 136-136zm895 0c75 0 136 61 136 136s-61 136-136 136-136-61-136-136 61-136 136-136zm895 0c75 0 136 61 136 136s-61 136-136 136-136-61-136-136 61-136 136-136zm896 0c75 0 136 61 136 136s-61 136-136 136c-76 0-137-61-137-136s61-136 137-136zm895 0c75 0 136 61 136 136s-61 136-136 136-136-61-136-136 61-136 136-136zm895 0c75 0 136 61 136 136s-61 136-136 136-136-61-136-136 61-136 136-136zm895 0c76 0 136 61 136 136s-60 136-136 136c-75 0-136-61-136-136s61-136 136-136zm896 0c75 0 136 61 136 136s-61 136-136 136c-76 0-137-61-137-136s61-136 137-136zm-6715 584c75 0 136 61 136 136s-61 136-136 136-136-61-136-136 61-136 136-136zm895 0c76 0 137 61 137 136s-61 136-137 136c-75 0-136-61-136-136s61-136 136-136zm896 0c75 0 136 61 136 136s-61 136-136 136c-76 0-137-61-137-136s61-136 137-136zm895 0c75 0 136 61 136 136s-61 136-136 136-136-61-136-136 61-136 136-136zm895 0c75 0 136 61 136 136s-61 136-136 136-136-61-136-136 61-136 136-136zm895 0c76 0 137 61 137 136s-61 136-137 136c-75 0-136-61-136-136s61-136 136-136zm896 0c75 0 136 61 136 136s-61 136-136 136c-76 0-137-61-137-136s61-136 137-136zm895 0c75 0 136 61 136 136s-61 136-136 136-136-61-136-136 61-136 136-136zm-7610-1830c75 0 136 61 136 136 0 76-61 137-136 137s-136-61-136-137c0-75 61-136 136-136zm895 0c76 0 137 61 137 136 0 76-61 137-137 137-75 0-136-61-136-137 0-75 61-136 136-136zm896 0c75 0 136 61 136 136 0 76-61 137-136 137s-136-61-136-137c0-75 61-136 136-136zm895 0c75 0 136 61 136 136 0 76-61 137-136 137s-136-61-136-137c0-75 61-136 136-136zm895 0c75 0 136 61 136 136 0 76-61 137-136 137s-136-61-136-137c0-75 61-136 136-136zm896 0c75 0 136 61 136 136 0 76-61 137-136 137-76 0-137-61-137-137 0-75 61-136 137-136zm895 0c75 0 136 61 136 136 0 76-61 137-136 137s-136-61-136-137c0-75 61-136 136-136zm895 0c75 0 136 61 136 136 0 76-61 137-136 137s-136-61-136-137c0-75 61-136 136-136zm895 0c76 0 136 61 136 136 0 76-60 137-136 137-75 0-136-61-136-137 0-75 61-136 136-136zm896 0c75 0 136 61 136 136 0 76-61 137-136 137-76 0-137-61-137-137 0-75 61-136 137-136zm-8505 584c75 0 136 61 136 136 0 76-61 137-136 137-76 0-137-61-137-137 0-75 61-136 137-136zm895 0c75 0 136 61 136 136 0 76-61 137-136 137s-136-61-136-137c0-75 61-136 136-136zm895 0c75 0 136 61 136 136 0 76-61 137-136 137s-136-61-136-137c0-75 61-136 136-136zm895 0c76 0 137 61 137 136 0 76-61 137-137 137-75 0-136-61-136-137 0-75 61-136 136-136zm896 0c75 0 136 61 136 136 0 76-61 137-136 137-76 0-137-61-137-137 0-75 61-136 137-136zm895 0c75 0 136 61 136 136 0 76-61 137-136 137s-136-61-136-137c0-75 61-136 136-136zm895 0c75 0 136 61 136 136 0 76-61 137-136 137s-136-61-136-137c0-75 61-136 136-136zm895 0c76 0 137 61 137 136 0 76-61 137-137 137-75 0-136-61-136-137 0-75 61-136 136-136zm896 0c75 0 136 61 136 136 0 76-61 137-136 137-76 0-137-61-137-137 0-75 61-136 137-136zm895 0c75 0 136 61 136 136 0 76-61 137-136 137s-136-61-136-137c0-75 61-136 136-136zm-7610-1829c75 0 136 61 136 136s-61 136-136 136-136-61-136-136 61-136 136-136zm895 0c76 0 137 61 137 136s-61 136-137 136c-75 0-136-61-136-136s61-136 136-136zm896 0c75 0 136 61 136 136s-61 136-136 136-136-61-136-136 61-136 136-136zm895 0c75 0 136 61 136 136s-61 136-136 136-136-61-136-136 61-136 136-136zm895 0c75 0 136 61 136 136s-61 136-136 136-136-61-136-136 61-136 136-136zm896 0c75 0 136 61 136 136s-61 136-136 136c-76 0-137-61-137-136s61-136 137-136zm895 0c75 0 136 61 136 136s-61 136-136 136-136-61-136-136 61-136 136-136zm895 0c75 0 136 61 136 136s-61 136-136 136-136-61-136-136 61-136 136-136zm895 0c76 0 136 61 136 136s-60 136-136 136c-75 0-136-61-136-136s61-136 136-136zm896 0c75 0 136 61 136 136s-61 136-136 136c-76 0-137-61-137-136s61-136 137-136zm-8505 584c75 0 136 60 136 136 0 75-61 136-136 136-76 0-137-61-137-136 0-76 61-136 137-136zm895 0c75 0 136 60 136 136 0 75-61 136-136 136s-136-61-136-136c0-76 61-136 136-136zm895 0c75 0 136 60 136 136 0 75-61 136-136 136s-136-61-136-136c0-76 61-136 136-136zm895 0c76 0 137 60 137 136 0 75-61 136-137 136-75 0-136-61-136-136 0-76 61-136 136-136zm896 0c75 0 136 60 136 136 0 75-61 136-136 136-76 0-137-61-137-136 0-76 61-136 137-136zm895 0c75 0 136 60 136 136 0 75-61 136-136 136s-136-61-136-136c0-76 61-136 136-136zm895 0c75 0 136 60 136 136 0 75-61 136-136 136s-136-61-136-136c0-76 61-136 136-136zm895 0c76 0 137 60 137 136 0 75-61 136-137 136-75 0-136-61-136-136 0-76 61-136 136-136zm896 0c75 0 136 60 136 136 0 75-61 136-136 136-76 0-137-61-137-136 0-76 61-136 137-136zm895 0c75 0 136 60 136 136 0 75-61 136-136 136s-136-61-136-136c0-76 61-136 136-136zm-7610-1830c75 0 136 61 136 136s-61 136-136 136-136-61-136-136 61-136 136-136zm895 0c76 0 137 61 137 136s-61 136-137 136c-75 0-136-61-136-136s61-136 136-136zm896 0c75 0 136 61 136 136s-61 136-136 136-136-61-136-136 61-136 136-136zm895 0c75 0 136 61 136 136s-61 136-136 136-136-61-136-136 61-136 136-136zm895 0c75 0 136 61 136 136s-61 136-136 136-136-61-136-136 61-136 136-136zm896 0c75 0 136 61 136 136s-61 136-136 136c-76 0-137-61-137-136s61-136 137-136zm895 0c75 0 136 61 136 136s-61 136-136 136-136-61-136-136 61-136 136-136zm895 0c75 0 136 61 136 136s-61 136-136 136-136-61-136-136 61-136 136-136zm895 0c76 0 136 61 136 136s-60 136-136 136c-75 0-136-61-136-136s61-136 136-136zm896 0c75 0 136 61 136 136s-61 136-136 136c-76 0-137-61-137-136s61-136 137-136zm-8505 584c75 0 136 61 136 136s-61 136-136 136c-76 0-137-61-137-136s61-136 137-136zm895 0c75 0 136 61 136 136s-61 136-136 136-136-61-136-136 61-136 136-136zm895 0c75 0 136 61 136 136s-61 136-136 136-136-61-136-136 61-136 136-136zm895 0c76 0 137 61 137 136s-61 136-137 136c-75 0-136-61-136-136s61-136 136-136zm896 0c75 0 136 61 136 136s-61 136-136 136c-76 0-137-61-137-136s61-136 137-136zm895 0c75 0 136 61 136 136s-61 136-136 136-136-61-136-136 61-136 136-136zm895 0c75 0 136 61 136 136s-61 136-136 136-136-61-136-136 61-136 136-136zm895 0c76 0 137 61 137 136s-61 136-137 136c-75 0-136-61-136-136s61-136 136-136zm896 0c75 0 136 61 136 136s-61 136-136 136c-76 0-137-61-137-136s61-136 137-136zm-6715-1830c75 0 136 61 136 137 0 75-61 136-136 136s-136-61-136-136c0-76 61-137 136-137zm895 0c76 0 137 61 137 137 0 75-61 136-137 136-75 0-136-61-136-136 0-76 61-137 136-137zm896 0c75 0 136 61 136 137 0 75-61 136-136 136s-136-61-136-136c0-76 61-137 136-137zm895 0c75 0 136 61 136 137 0 75-61 136-136 136s-136-61-136-136c0-76 61-137 136-137zm895 0c75 0 136 61 136 137 0 75-61 136-136 136s-136-61-136-136c0-76 61-137 136-137zm896 0c75 0 136 61 136 137 0 75-61 136-136 136-76 0-137-61-137-136 0-76 61-137 137-137zm895 0c75 0 136 61 136 137 0 75-61 136-136 136s-136-61-136-136c0-76 61-137 136-137zm895 0c75 0 136 61 136 137 0 75-61 136-136 136s-136-61-136-136c0-76 61-137 136-137zm895 0c76 0 136 61 136 137 0 75-60 136-136 136-75 0-136-61-136-136 0-76 61-137 136-137zm896 0c75 0 136 61 136 137 0 75-61 136-136 136-76 0-137-61-137-136 0-76 61-137 137-137zm-8505 584c75 0 136 61 136 137 0 75-61 136-136 136-76 0-137-61-137-136 0-76 61-137 137-137zm895 0c75 0 136 61 136 137 0 75-61 136-136 136s-136-61-136-136c0-76 61-137 136-137zm895 0c75 0 136 61 136 137 0 75-61 136-136 136s-136-61-136-136c0-76 61-137 136-137zm895 0c76 0 137 61 137 137 0 75-61 136-137 136-75 0-136-61-136-136 0-76 61-137 136-137zm896 0c75 0 136 61 136 137 0 75-61 136-136 136-76 0-137-61-137-136 0-76 61-137 137-137zm895 0c75 0 136 61 136 137 0 75-61 136-136 136s-136-61-136-136c0-76 61-137 136-137zm895 0c75 0 136 61 136 137 0 75-61 136-136 136s-136-61-136-136c0-76 61-137 136-137zm895 0c76 0 137 61 137 137 0 75-61 136-137 136-75 0-136-61-136-136 0-76 61-137 136-137zm896 0c75 0 136 61 136 137 0 75-61 136-136 136-76 0-137-61-137-136 0-76 61-137 137-137zm895 0c75 0 136 61 136 137 0 75-61 136-136 136s-136-61-136-136c0-76 61-137 136-137zm0 1246c75 0 136 61 136 136s-61 136-136 136-136-61-136-136 61-136 136-136z"/><path d="m6914 3908c0-82 67-149 149-149s149 67 149 149v2233c0 655-268 1250-699 1682-432 432-1027 700-1683 700-655 0-1250-268-1682-700-431-432-699-1027-699-1682v-2233c0-82 66-149 149-149 82 0 149 67 149 149v2233c0 572 234 1093 612 1471s899 612 1471 612c573 0 1094-234 1472-612 377-378 612-899 612-1471z" fill-rule="nonzero"/><path d="m288 3183h8968v1994c-258 3-499-129-620-334-118 199-350 334-617 334-266 0-498-135-616-334-118 199-350 334-617 334-266 0-498-135-616-334-118 199-350 334-617 334-266 0-498-135-616-334-118 199-350 334-617 334-266 0-498-135-616-334-118 199-350 334-617 334-266 0-498-135-616-334-118 199-350 334-617 334-266 0-498-135-616-334-118 199-350 334-617 334-266 0-498-135-616-334l-5 8v-888c0-300 102-570 288-780z"/></g><path d="m793 2820h8463v2199c-258 4-499-142-620-368-118 219-350 368-617 368-266 0-498-149-616-368-118 219-350 368-617 368-266 0-498-149-616-368-118 219-350 368-617 368-266 0-498-149-616-368-118 219-350 368-617 368-266 0-498-149-616-368-118 219-350 368-617 368-266 0-498-149-616-368-118 219-350 368-617 368-266 0-498-149-616-368-118 219-350 368-617 368-266 0-498-149-616-368l-5 9v-697c0-436 216-809 593-1027z" fill="#e4e7ed"/><g><path d="m2088 3352c269 0 488 218 488 488 0 269-219 488-488 488-270 0-488-219-488-488 0-270 218-488 488-488z" fill="#ffc42e"/><path d="m2088 3514c180 0 325 146 325 326s-145 326-325 326-326-146-326-326 146-326 326-326z" fill="#edb423"/><g><path d="m2088 3589c138 0 251 112 251 251 0 138-113 251-251 251-139 0-251-113-251-251 0-139 112-251 251-251z" fill="#5098c2"/><g><path d="m6553 3352c269 0 488 218 488 488 0 269-219 488-488 488-270 0-488-219-488-488 0-270 218-488 488-488z" fill="#ffc42e"/><path d="m6553 3514c180 0 326 146 326 326s-146 326-326 326-326-146-326-326 146-326 326-326z" fill="#edb423"/><path d="m6553 3589c138 0 251 112 251 251 0 138-113 251-251 251-139 0-251-113-251-251 0-139 112-251 251-251z" fill="#5098c2"/></g></g></g><path d="m6404 3840c0-83 66-149 149-149 82 0 149 66 149 149v2232c0 655-268 1251-699 1683-432 431-1028 699-1683 699s-1250-268-1682-699c-432-432-700-1028-700-1683v-2232c0-83 67-149 150-149 82 0 149 66 149 149v2232c0 573 234 1094 612 1472 378 377 898 612 1471 612s1094-235 1472-612c377-378 612-899 612-1472z" fill="#fff" fill-rule="nonzero"/><path d="m793 2820h8463v115h-8662z" fill="#f0f2f5"/></g><path d="m7198 8408h2464v3130h-2464c-140 0-255-114-255-254v-2622c0-140 115-254 255-254z" fill="#edb423"/><g><path d="m6781 7819h5335c94 0 171 77 171 171v2954c0 94-77 171-171 171h-5335c-94 0-171-77-171-171v-2954c0-94 77-171 171-171z" fill="#00c49a"/><path d="m6781 7757h5335c94 0 171 77 171 171v2954c0 94-77 171-171 171h-5335c-94 0-171-77-171-171v-2954c0-94 77-171 171-171z" fill="#00dcab"/><path d="m6610 8119h5677v719h-5677z" fill="#0e4275"/><path d="m8547 8119h1836l-742 720h-1837zm2310 0h556l-742 719-557 1z" fill="#18528c"/><g fill="#00ad88"><path d="m8208 9809h2991v103h-2991z"/><path d="m8208 10113h2013v103h-2013z"/><path d="m8208 10417h2465v102h-2465z"/><path d="m10605 10113h1119v103h-1119z"/></g><path d="m7756 9813h-558c-40 0-72 32-72 72v559c0 40 32 72 72 72h558c40 0 73-32 73-72v-559c0-40-33-72-73-72z" fill="#ecf0f1"/><path d="m6867 9462h5163v-439h-5163z" fill="#ecf0f1"/><path d="m9235 9142h2523v207h-2523z" fill="#bac1cf"/></g></g></g></svg>