<svg id="Layer_1" enable-background="new 0 0 512 512" height="512" viewBox="0 0 512 512" width="512" xmlns="http://www.w3.org/2000/svg" xmlns:xlink="http://www.w3.org/1999/xlink"><linearGradient id="lg1"><stop offset="0" stop-color="#ff2525"/><stop offset="1" stop-color="#ffe53b"/></linearGradient><linearGradient id="XMLID_3_" gradientUnits="userSpaceOnUse" x1="256" x2="256" xlink:href="#lg1" y1="508.078" y2="21.177"/><linearGradient id="XMLID_4_" gradientUnits="userSpaceOnUse" x1="314" x2="314" xlink:href="#lg1" y1="508.078" y2="21.177"/><linearGradient id="XMLID_5_" gradientUnits="userSpaceOnUse" x1="182" x2="182" xlink:href="#lg1" y1="508.078" y2="21.177"/><linearGradient id="XMLID_6_" gradientUnits="userSpaceOnUse" x1="92" x2="92" xlink:href="#lg1" y1="508.078" y2="21.177"/><linearGradient id="XMLID_7_" gradientUnits="userSpaceOnUse" x1="307" x2="307" xlink:href="#lg1" y1="508.078" y2="21.177"/><linearGradient id="XMLID_8_" gradientUnits="userSpaceOnUse" x1="150.318" x2="150.318" xlink:href="#lg1" y1="508.078" y2="21.177"/><linearGradient id="XMLID_9_" gradientUnits="userSpaceOnUse" x1="244.26" x2="244.26" xlink:href="#lg1" y1="508.078" y2="21.177"/><g id="XMLID_1_"><g id="XMLID_3187_"><path id="XMLID_3522_" d="m425.6 86.4c-55.7-55.7-129.8-86.4-208.6-86.4-19.3 0-35 15.7-35 35 0 16.6 11.6 30.5 27.1 34.1l-203.7 376.4c-3 5.5-4.7 11.5-5.2 17.5h-.2c0 1 0 1.4.1 2 0 .6-.1 1.3-.1 1.9 0 24.8 20.1 45 44.9 45 7.4 0 14.8-1.8 21.4-5.4l104.8-56.7 3.7 4.2c3.8 4.4 9.3 6.9 15.2 6.9 11.1 0 20.1-9 20.1-20.1v-12l42.6-23c.6 1.8 1.1 3.6 1.2 5.6l4.8 52.2c1 11 10.1 19.3 21.2 19.3s20.4-8.7 21.2-19.7l6.4-87.2 121.8-65.9-4.8-8.8-116.2 62.8.5-6.2c.6-7.6 4.9-14.3 11.6-17.9l87.2-47.1c8.2-4.4 13.6-12.2 15-21.4s-1.6-18.2-8-24.7c0 0-.1-.1-.1-.1-3.5-3.6-5.5-8.3-5.5-13.3l-.2-20.4c-.1-10.8-6.2-20.7-15.8-25.6l-18.1-9.3c-4.4-2.3-7.7-6.1-9.3-10.8l-6.5-18.9c-3.6-10.5-12.7-17.9-23.7-19.4l-17.2-2.3c-5.2-.7-10-3.6-13.1-7.9l-9.9-13.9c-6.5-9.1-17.8-13.7-28.7-11.8l-16.8 2.9c-5.2.9-10.6-.4-14.9-3.6-6.8-5.2-15.5-7.1-23.8-5.3-.1 0-.2 0-.2.1l9.2-17.2c122.7 1.6 222 101.9 222 225 0 19.3 15.7 35 35 35s35-15.7 35-35c0-78.8-30.7-152.9-86.4-208.6zm-364.1 411.4c-5.1 2.7-10.8 4.2-16.6 4.2-9.2 0-17.5-3.6-23.8-9.4 3.1 1 6.3 1.5 9.5 1.5 5.1 0 10.2-1.3 14.9-3.9l93.5-51.8c8.3-4.6 18.7-3 25.3 3.7zm148.5-80.3v-5.1c0-7.8 4.2-14.9 11.1-18.6 6.7-3.6 14.4-3.6 21.1 0 1.9 1 3.5 2.2 5 3.6zm3-320.5c5.5-1.2 11.2.1 15.7 3.5 6.4 4.9 14.7 6.9 22.6 5.5l16.8-2.9c7.2-1.3 14.6 1.8 18.9 7.7l9.9 13.9c4.7 6.5 11.9 10.9 19.9 11.9l17.2 2.3c7.2 1 13.2 5.9 15.6 12.8l6.5 18.9c2.5 7.1 7.5 13 14.2 16.4l18.1 9.3c6.3 3.3 10.3 9.7 10.4 16.8l.2 20.4c.1 7.6 3.1 14.8 8.3 20.1 0 0 .1.1.1.1 4.3 4.3 6.2 10.3 5.3 16.3s-4.5 11.1-9.8 14l-87.2 47.1c-9.7 5.3-16 15-16.8 26l-7.8 105.2c-.4 5.9-5.4 10.5-11.3 10.5s-10.7-4.4-11.3-10.3l-4.8-52.2c-1-10.8-7.3-20.3-16.9-25.5-9.6-5.1-21-5.1-30.6.1-10.1 5.4-16.3 15.9-16.3 27.3v28.4c0 5.6-4.5 10.1-10.1 10.1-2.9 0-5.7-1.3-7.6-3.5l-9.6-11c-9.6-11-25.8-13.8-38.5-6.8l-93.5 51.8c-6.5 3.6-14.1 3.5-20.5-.3-5.9-3.5-9.6-9.5-10.1-16.2.3-5.1 1.7-10.1 4.1-14.6l181.9-336.3c18.4 1.6 32.9 17.1 32.9 35.9 0 19.9-16.1 36-36 36-4.6 0-9.1-.9-13.3-2.5l-3.7 9.3c5.4 2.2 11.1 3.3 17 3.3 25.4 0 46-20.6 46-46 0-22.5-16.3-41.3-37.7-45.2 2.9-3.8 7-6.5 11.8-7.6zm170.2 31.8c-44.4-44.4-103.4-68.8-166.2-68.8-13.8 0-25-11.2-25-25s11.2-25 25-25c148.5 0 270.9 114.2 283.8 259.4-6.3-5.8-14.6-9.4-23.8-9.4-10.4 0-19.7 4.5-26.1 11.7-5.3-53.9-28.9-104-67.7-142.9zm93.8 191.2c-13.8 0-25-11.2-25-25s11.2-25 25-25 25 11.2 25 25-11.2 25-25 25z" fill="url(#XMLID_3_)"/><path id="XMLID_3617_" d="m314 311c25.4 0 46-20.6 46-46s-20.6-46-46-46-46 20.6-46 46 20.6 46 46 46zm0-82c19.9 0 36 16.1 36 36s-16.1 36-36 36-36-16.1-36-36 16.1-36 36-36z" fill="url(#XMLID_4_)"/><path id="XMLID_3620_" d="m182 244c-25.4 0-46 20.6-46 46s20.6 46 46 46 46-20.6 46-46-20.6-46-46-46zm0 82c-19.9 0-36-16.1-36-36s16.1-36 36-36 36 16.1 36 36-16.1 36-36 36z" fill="url(#XMLID_5_)"/><path id="XMLID_3623_" d="m108.3 377.7c-5.5-5.5-12.2-9.1-19-10.2-7.4-1.2-13.9.7-18.5 5.2s-6.4 11.1-5.2 18.5c1.1 6.8 4.7 13.5 10.2 19s12.2 9.1 19 10.2c1.5.2 2.9.4 4.3.4 5.6 0 10.6-1.9 14.2-5.6 4.6-4.6 6.4-11.1 5.2-18.5-1.2-6.8-4.8-13.5-10.2-19zm-2.2 30.4c-3 3-7.5 2.8-9.8 2.4-4.6-.8-9.6-3.4-13.5-7.4s-6.6-8.8-7.4-13.5c-.4-2.4-.6-6.8 2.4-9.8 2.1-2.1 4.9-2.6 7.2-2.6 1 0 1.9.1 2.6.2 4.6.8 9.6 3.4 13.5 7.4s6.6 8.8 7.4 13.5c.5 2.4.7 6.8-2.4 9.8z" fill="url(#XMLID_6_)"/><path id="XMLID_3626_" d="m300 204.8c1.4 0 2.8-.1 4.3-.4 6.8-1.1 13.5-4.7 19-10.2s9.1-12.2 10.2-19c1.2-7.4-.7-13.9-5.2-18.5-4.6-4.6-11.2-6.4-18.5-5.2-6.8 1.1-13.5 4.7-19 10.2s-9.1 12.2-10.2 19c-1.2 7.4.7 13.9 5.2 18.5 3.6 3.7 8.6 5.6 14.2 5.6zm-9.6-22.5c.8-4.6 3.4-9.6 7.4-13.5s8.8-6.6 13.5-7.4c.7-.1 1.6-.2 2.6-.2 2.3 0 5.1.5 7.2 2.6 3 3 2.8 7.5 2.4 9.8-.8 4.6-3.4 9.6-7.4 13.5s-8.8 6.6-13.5 7.4c-2.4.4-6.8.6-9.8-2.4s-2.8-7.4-2.4-9.8z" fill="url(#XMLID_7_)"/><path id="XMLID_3704_" d="m135.5 363.4-1.9.3 1.7 9.8 1.9-.3c11.4-2 22-7.8 29.9-16.3l-7.4-6.8c-6.3 7-15 11.7-24.2 13.3z" fill="url(#XMLID_8_)"/><path id="XMLID_3710_" d="m232.9 208.4c2 11.4 7.8 22 16.3 29.9l6.8-7.4c-6.9-6.4-11.6-15-13.3-24.3l-.3-1.9-9.8 1.7z" fill="url(#XMLID_9_)"/></g></g></svg>